<svg id="Layer_1" data-name="Layer 1" xmlns="http://www.w3.org/2000/svg" xmlns:xlink="http://www.w3.org/1999/xlink" width="38" height="41" viewBox="0 0 38 41"><defs><style>.cls-1{fill:none;}.cls-2{clip-path:url(#clip-path);}</style><clipPath id="clip-path"><rect class="cls-1" width="38" height="40.77"/></clipPath></defs><g class="cls-2"><path d="M37.75,14a.75.75,0,0,0-.32-.21.7.7,0,0,0-.38,0H27V8.94a9.25,9.25,0,0,0-.58-3.3,8.79,8.79,0,0,0-1.72-2.81A8.05,8.05,0,0,0,22.07,1a7.47,7.47,0,0,0-6.14,0,8,8,0,0,0-2.6,1.87,8.79,8.79,0,0,0-1.72,2.81A9.25,9.25,0,0,0,11,8.94v4.78H1c-.28,0-.56,0-.71.25a.87.87,0,0,0-.2.35.91.91,0,0,0,0,.4L3.53,35.35a6.29,6.29,0,0,0,1.93,3.58,5.51,5.51,0,0,0,3.6,1.45H28.94a5.56,5.56,0,0,0,3.61-1.49,6.21,6.21,0,0,0,1.92-3.59L38,14.72a.91.91,0,0,0,0-.4A.78.78,0,0,0,37.75,14Zm-24.85-5a6.79,6.79,0,0,1,1.79-4.62,5.8,5.8,0,0,1,8.62,0A6.79,6.79,0,0,1,25.1,8.94v4.78H12.9ZM32.6,35.05a4.1,4.1,0,0,1-1.27,2.36,3.62,3.62,0,0,1-2.39,1H9.06a3.66,3.66,0,0,1-2.39-.95A4.21,4.21,0,0,1,5.4,35.05L2.07,15.73H35.93Z"/><path d="M26,25.54a.86.86,0,0,0,.36-.08.84.84,0,0,0,.31-.22,1.16,1.16,0,0,0,.2-.32,1,1,0,0,0,.07-.39v-3a1.32,1.32,0,0,0-.06-.39,1.27,1.27,0,0,0-.2-.34,1.1,1.1,0,0,0-.31-.22.8.8,0,0,0-.37-.08.76.76,0,0,0-.36.08,1,1,0,0,0-.31.22.9.9,0,0,0-.2.34.89.89,0,0,0-.06.39v3a1,1,0,0,0,.27.71A.91.91,0,0,0,26,25.54Z"/><path d="M12,25.54a.91.91,0,0,0,.66-.3,1,1,0,0,0,.27-.71v-3a1,1,0,0,0-.27-.71.89.89,0,0,0-.66-.29.92.92,0,0,0-.67.29,1.08,1.08,0,0,0-.27.71v3a1,1,0,0,0,.27.71A.93.93,0,0,0,12,25.54Z"/></g></svg>