<svg xmlns="http://www.w3.org/2000/svg" width="40" height="40" viewBox="0 0 40 40">
  <defs>
    <style>
      .cls-1, .cls-2 {
        fill: #fff;
      }

      .cls-2 {
        stroke: #000;
        stroke-miterlimit: 10;
        stroke-width: 0.97px;
      }
    </style>
  </defs>
  <g id="Layer_3" data-name="Layer 3">
    <g>
      <circle class="cls-1" cx="20" cy="20" r="19"/>
      <path class="cls-2" d="M30.85,12.72a6.67,6.67,0,0,0-2.14-1.42,6.48,6.48,0,0,0-5,0,6.56,6.56,0,0,0-2.14,1.42L20.26,14,19,12.72A6.59,6.59,0,0,0,9.68,22L11,23.31l9.31,9.31,9.32-9.31L30.85,22a6.56,6.56,0,0,0,1.42-2.14,6.48,6.48,0,0,0,0-5,6.67,6.67,0,0,0-1.42-2.14Z"/>
    </g>
  </g>
</svg>
