<?xml version="1.0" encoding="utf-8"?>
<!-- Generator: Adobe Illustrator 24.3.0, SVG Export Plug-In . SVG Version: 6.00 Build 0)  -->
<svg version="1.1" id="Layer_1" xmlns="http://www.w3.org/2000/svg" xmlns:xlink="http://www.w3.org/1999/xlink" x="0px" y="0px"
	 viewBox="0 0 44 44" style="enable-background:new 0 0 44 44;" xml:space="preserve">
<style type="text/css">
	.st0{fill:none;stroke:#000000;stroke-width:2;stroke-linecap:round;stroke-linejoin:round;}
</style>
<path class="st0" d="M38.2,8.5c-0.9-0.9-2-1.7-3.3-2.2c-1.2-0.5-2.5-0.8-3.9-0.8c-1.3,0-2.6,0.3-3.9,0.8c-1.2,0.5-2.3,1.3-3.3,2.2
	L22,10.4l-1.9-1.9c-1.9-1.9-4.5-3-7.1-3c-2.7,0-5.2,1.1-7.1,3c-1.9,1.9-3,4.5-3,7.1s1.1,5.2,3,7.1l1.9,1.9L22,38.9l14.3-14.3
	l1.9-1.9c0.9-0.9,1.7-2,2.2-3.3c0.5-1.2,0.8-2.5,0.8-3.9c0-1.3-0.3-2.6-0.8-3.9C39.9,10.5,39.1,9.4,38.2,8.5L38.2,8.5z"/>
</svg>
