<svg width="44" height="44" viewBox="0 0 44 44" fill="none" xmlns="http://www.w3.org/2000/svg">
<path d="M38.2067 8.4516C37.2703 7.51477 36.1585 6.77161 34.9349 6.26458C33.7112 5.75755 32.3996 5.49658 31.0751 5.49658C29.7505 5.49658 28.4389 5.75755 27.2152 6.26458C25.9916 6.77161 24.8798 7.51477 23.9434 8.4516L22.0001 10.3949L20.0567 8.4516C18.1653 6.56016 15.5999 5.49756 12.9251 5.49756C10.2502 5.49756 7.68482 6.56016 5.79339 8.4516C3.90195 10.343 2.83936 12.9084 2.83936 15.5833C2.83936 18.2582 3.90195 20.8235 5.79339 22.7149L7.73672 24.6583L22.0001 38.9216L36.2634 24.6583L38.2067 22.7149C39.1435 21.7785 39.8867 20.6668 40.3937 19.4431C40.9008 18.2194 41.1617 16.9078 41.1617 15.5833C41.1617 14.2587 40.9008 12.9471 40.3937 11.7234C39.8867 10.4998 39.1435 9.38798 38.2067 8.4516V8.4516Z" stroke="white" stroke-width="2" stroke-linecap="round" stroke-linejoin="round"/>
</svg>
