<svg width="34" height="34" viewBox="0 0 34 34" fill="none" xmlns="http://www.w3.org/2000/svg">
<path fill-rule="evenodd" clip-rule="evenodd" d="M9.95191 0.475409C11.7337 0.394455 12.3017 0.376465 16.8404 0.376465C21.379 0.376465 21.9471 0.395954 23.7274 0.475409C25.5076 0.554864 26.7227 0.835207 27.786 1.24148C28.8994 1.65674 29.9095 2.30588 30.7449 3.14541C31.5956 3.96844 32.2518 4.96388 32.671 6.06427C33.0842 7.11367 33.3667 8.313 33.4487 10.067C33.5307 11.8285 33.549 12.3892 33.549 16.8672C33.549 21.3467 33.5292 21.9074 33.4487 23.6659C33.3682 25.4199 33.0842 26.6192 32.671 27.6686C32.2517 28.7691 31.5945 29.7662 30.7449 30.5905C29.9095 31.43 28.8994 32.0776 27.786 32.4914C26.7227 32.8992 25.5076 33.178 23.7304 33.259C21.9471 33.3399 21.379 33.3579 16.8404 33.3579C12.3017 33.3579 11.7337 33.3384 9.95191 33.259C8.17473 33.1795 6.95956 32.8992 5.89629 32.4914C4.78125 32.0776 3.77099 31.4289 2.93584 30.5905C2.0858 29.7669 1.42799 28.7703 1.00828 27.6701C0.596638 26.6207 0.314111 25.4214 0.232087 23.6674C0.150063 21.9059 0.131836 21.3452 0.131836 16.8672C0.131836 12.3877 0.151582 11.827 0.232087 10.07C0.312592 8.313 0.596638 7.11367 1.00828 6.06427C1.42861 4.96401 2.08692 3.96741 2.93735 3.14391C3.77132 2.30513 4.78057 1.65591 5.89477 1.24148C6.95804 0.835207 8.17321 0.556364 9.95039 0.475409H9.95191ZM23.5922 3.44374C21.8302 3.36428 21.3016 3.34779 16.8404 3.34779C12.3792 3.34779 11.8506 3.36428 10.0886 3.44374C8.45877 3.5172 7.57474 3.78555 6.98538 4.01192C6.20616 4.31175 5.6487 4.66705 5.0639 5.24423C4.50955 5.7765 4.08292 6.42449 3.81531 7.14066C3.58595 7.72233 3.31406 8.59484 3.23963 10.2034C3.15912 11.9425 3.14241 12.4642 3.14241 16.8672C3.14241 21.2702 3.15912 21.7919 3.23963 23.5309C3.31406 25.1395 3.58595 26.012 3.81531 26.5937C4.08265 27.3088 4.50948 27.9579 5.0639 28.4901C5.60313 29.0373 6.26084 29.4586 6.98538 29.7225C7.57474 29.9488 8.45877 30.2172 10.0886 30.2906C11.8506 30.3701 12.3777 30.3866 16.8404 30.3866C21.3031 30.3866 21.8302 30.3701 23.5922 30.2906C25.222 30.2172 26.106 29.9488 26.6954 29.7225C27.4746 29.4226 28.0321 29.0673 28.6169 28.4901C29.1713 27.9579 29.5981 27.3088 29.8655 26.5937C30.0948 26.012 30.3667 25.1395 30.4412 23.5309C30.5217 21.7919 30.5384 21.2702 30.5384 16.8672C30.5384 12.4642 30.5217 11.9425 30.4412 10.2034C30.3667 8.59484 30.0948 7.72233 29.8655 7.14066C29.5617 6.37159 29.2017 5.8214 28.6169 5.24423C28.0775 4.69714 27.421 4.27609 26.6954 4.01192C26.106 3.78555 25.222 3.5172 23.5922 3.44374ZM14.7063 21.9508C15.8981 22.4405 17.2253 22.5066 18.461 22.1378C19.6968 21.769 20.7645 20.9882 21.4817 19.9288C22.199 18.8694 22.5214 17.5971 22.3938 16.3291C22.2662 15.0612 21.6965 13.8763 20.7821 12.9769C20.1992 12.4019 19.4943 11.9617 18.7183 11.6878C17.9423 11.414 17.1145 11.3134 16.2943 11.3932C15.4742 11.473 14.6822 11.7313 13.9753 12.1495C13.2685 12.5677 12.6644 13.1354 12.2065 13.8117C11.7486 14.488 11.4484 15.256 11.3274 16.0606C11.2063 16.8651 11.2676 17.6862 11.5066 18.4646C11.7457 19.243 12.1567 19.9594 12.7099 20.5622C13.2632 21.165 13.945 21.6393 14.7063 21.9508ZM10.7676 10.8736C11.5651 10.0865 12.5118 9.46211 13.5538 9.03614C14.5958 8.61016 15.7126 8.39092 16.8404 8.39092C17.9682 8.39092 19.085 8.61016 20.127 9.03613C21.1689 9.46211 22.1157 10.0865 22.9132 10.8736C23.7107 11.6607 24.3433 12.5951 24.7749 13.6235C25.2065 14.6518 25.4286 15.7541 25.4286 16.8672C25.4286 17.9803 25.2065 19.0825 24.7749 20.1109C24.3433 21.1393 23.7107 22.0737 22.9132 22.8608C21.3026 24.4504 19.1181 25.3435 16.8404 25.3435C14.5627 25.3435 12.3782 24.4504 10.7676 22.8608C9.15699 21.2712 8.25216 19.1152 8.25216 16.8672C8.25216 14.6191 9.15699 12.4632 10.7676 10.8736ZM27.3334 9.65325C27.531 9.46925 27.6892 9.248 27.7986 9.00257C27.9081 8.75715 27.9665 8.49255 27.9704 8.22444C27.9744 7.95634 27.9238 7.69017 27.8217 7.44171C27.7196 7.19324 27.5679 6.96752 27.3758 6.77792C27.1837 6.58832 26.955 6.43869 26.7033 6.33789C26.4515 6.23708 26.1819 6.18716 25.9102 6.19107C25.6386 6.19498 25.3705 6.25264 25.1218 6.36064C24.8731 6.46865 24.649 6.62479 24.4625 6.81984C24.1 7.19917 23.9015 7.70302 23.9092 8.22444C23.9169 8.74586 24.1302 9.24379 24.5038 9.61253C24.8774 9.98127 25.3819 10.1918 25.9102 10.1994C26.4385 10.207 26.949 10.0111 27.3334 9.65325Z" fill="white"/>
</svg>
