<?xml version="1.0" encoding="utf-8"?>
<!-- Generator: Adobe Illustrator 24.3.0, SVG Export Plug-In . SVG Version: 6.00 Build 0)  -->
<svg version="1.1" id="Layer_1" xmlns="http://www.w3.org/2000/svg" xmlns:xlink="http://www.w3.org/1999/xlink" x="0px" y="0px"
	 viewBox="0 0 38 41" style="enable-background:new 0 0 38 41;" xml:space="preserve">
<style type="text/css">
	.st0{clip-path:url(#SVGID_2_);}
</style>
<g>
	<defs>
		<rect id="SVGID_1_" width="38" height="40.8"/>
	</defs>
	<clipPath id="SVGID_2_">
		<use xlink:href="#SVGID_1_"  style="overflow:visible;"/>
	</clipPath>
	<g class="st0">
		<path d="M37.8,14c-0.1-0.1-0.2-0.2-0.3-0.2c-0.1,0-0.3-0.1-0.4,0H27V8.9c0-1.1-0.2-2.3-0.6-3.3c-0.4-1-1-2-1.7-2.8S23,1.4,22.1,1
			c-1-0.4-2-0.7-3.1-0.7S16.9,0.5,15.9,1c-1,0.4-1.9,1.1-2.6,1.9c-0.7,0.8-1.3,1.8-1.7,2.8c-0.4,1-0.6,2.2-0.6,3.3v4.8H0.9
			c-0.3,0-0.6,0-0.7,0.3c-0.1,0.1-0.2,0.2-0.2,0.3c0,0.1-0.1,0.3,0,0.4l3.5,20.6c0.2,1.4,0.9,2.7,1.9,3.6c1,0.9,2.3,1.4,3.6,1.5
			h19.9c1.3,0,2.6-0.6,3.6-1.5c1-0.9,1.7-2.2,1.9-3.6L38,14.7c0-0.1,0-0.3,0-0.4S37.8,14.1,37.8,14z M12.9,8.9
			c0-1.7,0.6-3.4,1.8-4.6c1.1-1.2,2.7-1.9,4.3-1.9c1.6,0,3.2,0.7,4.3,1.9c1.1,1.2,1.8,2.9,1.8,4.6v4.8H12.9V8.9z M32.6,35
			c-0.2,0.9-0.6,1.8-1.3,2.4c-0.7,0.6-1.5,0.9-2.4,1H9.1c-0.9,0-1.7-0.3-2.4-1C6,36.8,5.6,36,5.4,35L2.1,15.7h33.9L32.6,35z"/>
		<path d="M26,25.5c0.1,0,0.2,0,0.4-0.1c0.1-0.1,0.2-0.1,0.3-0.2c0.1-0.1,0.2-0.2,0.2-0.3c0-0.1,0.1-0.3,0.1-0.4v-3
			c0-0.1,0-0.3-0.1-0.4c0-0.1-0.1-0.2-0.2-0.3c-0.1-0.1-0.2-0.2-0.3-0.2c-0.1-0.1-0.2-0.1-0.4-0.1s-0.2,0-0.4,0.1
			c-0.1,0.1-0.2,0.1-0.3,0.2c-0.1,0.1-0.2,0.2-0.2,0.3c0,0.1-0.1,0.3-0.1,0.4v3c0,0.3,0.1,0.5,0.3,0.7C25.5,25.4,25.8,25.5,26,25.5z
			"/>
		<path d="M12,25.5c0.2,0,0.5-0.1,0.7-0.3c0.2-0.2,0.3-0.4,0.3-0.7v-3c0-0.3-0.1-0.5-0.3-0.7c-0.2-0.2-0.4-0.3-0.7-0.3
			c-0.2,0-0.5,0.1-0.7,0.3C11.1,21,11,21.2,11,21.5v3c0,0.3,0.1,0.5,0.3,0.7C11.5,25.4,11.7,25.5,12,25.5z"/>
	</g>
</g>
</svg>
